<svg height="41" viewBox="0 0 132 41" width="132" xmlns="http://www.w3.org/2000/svg"><g fill="#3377f8"><path d="m18.215625 33.20625c.1171875.225.1828125.4828125.1828125.7546875 0 .890625-.7125 1.6125-1.5984375 1.63125-4.3875-.2953125-8.3296875-2.19375-11.2546875-5.11875-3.1875-3.1875-5.1609375-7.5890625-5.1609375-12.4546875 0-4.8609375 1.9734375-9.2671875 5.1609375-12.4546875s7.5890625-5.15625 12.4546875-5.15625c4.8609375 0 9.2671875 1.9734375 12.4546875 5.15625 3.1875 3.1875 5.15625 7.5890625 5.15625 12.4546875 0 2.5125-.525 4.8984375-1.471875 7.0640625-.28125.496875-.8109375.834375-1.425.834375-.553125 0-1.040625-.2765625-1.3359375-.69375l-.1171875-.1921875c-.1125-.225-.178125-.478125-.178125-.7453125 0-.196875.0375-.3890625.103125-.5671875.7546875-1.7484375 1.1765625-3.675 1.1765625-5.7 0-3.965625-1.6078125-7.55625-4.2046875-10.153125s-6.1875-4.2046875-10.153125-4.2046875-7.55625 1.6078125-10.153125 4.2046875-4.2046875 6.1875-4.2046875 10.153125 1.6078125 7.55625 4.2046875 10.153125c2.371875 2.371875 5.5734375 3.91875 9.13125 4.1671875l-.0375-.0046875c.4828125.0515625.9046875.3140625 1.1671875.69375m-.1125-26.0953125c3.0609375 0 5.83125 1.2421875 7.8375 3.2484375s3.2484375 4.7765625 3.2484375 7.8421875c0 .571875-.0421875 1.1296875-.1265625 1.6734375-.1078125.7125-.8953125 1.190625-1.5796875 1.190625-.8484375 0-1.7578125-.8578125-1.63125-1.7296875.0515625-.3703125.0796875-.75.0796875-1.134375 0-2.1609375-.8765625-4.1203125-2.2921875-5.540625-1.415625-1.415625-3.375-2.2921875-5.540625-2.2921875s-4.1203125.8765625-5.540625 2.2921875c-1.415625 1.415625-2.2921875 3.375-2.2921875 5.540625s.8765625 4.1203125 2.2921875 5.540625c.76875.76875 1.7015625 1.3828125 2.7375 1.7765625.459375.1734375.7640625.9140625.7640625 1.3828125 0 .91875-.7453125 1.659375-1.659375 1.659375-.178125 0-.3140625-.01875-.4734375-.084375-1.3828125-.5625-2.625-1.396875-3.665625-2.4328125-2.00625-2.00625-3.2484375-4.7765625-3.2484375-7.8421875 0-3.0609375 1.2421875-5.8359375 3.2484375-7.8421875s4.78125-3.2484375 7.8421875-3.2484375zm8.3953125 18.3328125-.0046875.0046875c.215625-.2765625.346875-.6234375.346875-1.003125 0-.9-.73125-1.63125-1.63125-1.63125-.45 0-.853125.1828125-1.1484375.4734375-.13125.1546875-.271875.3046875-.4171875.45-1.0171875 1.0171875-2.3109375 1.753125-3.759375 2.090625l.028125-.0046875c-.646875.215625-1.1109375.8296875-1.1109375 1.546875 0 .9.73125 1.63125 1.63125 1.63125.1078125 0 .2109375-.009375.309375-.028125l-.01875.0046875.01875-.0046875c2.0015625-.4875 3.7921875-1.51875 5.203125-2.9296875.1921875-.1921875.375-.3890625.5484375-.590625z" transform="translate(0 2)"/><g transform="translate(50)"><path d="m68.6195627 26.1563073c-4.1990794 0-6.926122-3.2630734-6.926122-7.2690367 0-4.0106651 2.7270426-7.2173165 6.926122-7.2173165s7.0440737 3.2066514 7.0440737 7.2173165c0 4.0059633-2.8449943 7.2690367-7.0440737 7.2690367zm1.6560414 6.1311927c2.3165708 0 4.3642118-.5830275 6.1523591-1.7537844 1.7834292-1.1707569 3.1563866-2.7599771 4.1188722-4.7723624.9577676-2.0123853 1.4390104-4.269266 1.4390104-6.7706422 0-2.5719037-.5520138-4.8946101-1.6607595-6.9728211s-2.5713464-3.67683485-4.3878021-4.79587155-3.821634-1.68325688-6.0013809-1.68325688c-1.7220943 0-3.2837744.35263761-4.6897583 1.06261468-1.4059839.70997706-2.7223245 1.94655963-3.7272727 3.51697245v-3.78967888h-6.3174914v34.62901378h6.3174914v-13.1792431c.7501726 1.3635321 2.3779056 2.8211009 3.8027618 3.4934633 1.41542.6770642 3.0667433 1.0155963 4.95397 1.0155963z"/><path d="m7.06294591 29.7155963c-1.60886075-1.5986238-2.4109321-3.8696101-2.4109321-7.1655963v-10.5321101h-4.64729574v-5.68451834h4.64729574v-6.29575688h6.31749139v6.29575688h7.987687v5.68451834h-7.987687v9.2955275c0 1.7443808.2972382 2.9997707.8917146 3.7567661.7407365.940367 2.193901 1.3823394 3.8027618 1.3823394h3.2932106l-.0141542 4.9322248c-3.8216341 1.3870413-8.7520138 1.4387615-11.88009209-1.6691514z"/><path d="m35.4515535 26.1563073c4.1990794 0 6.926122-3.2630734 6.926122-7.2690367 0-4.0106651-2.7270426-7.2173165-6.926122-7.2173165s-7.0440736 3.2066514-7.0440736 7.2173165c0 4.0059633 2.8449942 7.2690367 7.0440736 7.2690367zm-1.6560414 6.1311927c-2.3165708 0-4.3642118-.5830275-6.1523591-1.7537844-1.7834292-1.1707569-3.1563866-2.7599771-4.1188722-4.7723624-.9577676-2.0123853-1.4390104-4.269266-1.4390104-6.7706422 0-2.5719037.5520138-4.8946101 1.6607595-6.9728211s2.5713464-3.67683485 4.3878021-4.79587155c1.8211738-1.1190367 3.8216341-1.68325688 6.0013809-1.68325688 1.7220943 0 3.2837744.35263761 4.6897583 1.06261468 1.4059839.70997706 2.7223245 1.94655963 3.7272728 3.51697245v-3.78967888h6.3269275v25.16422018h-6.3222095l-.212313-3.3618119c-.8162255 1.2553899-2.2882623 2.5248853-3.5904488 3.1408257-1.4201381.6770642-3.0714614 1.0155963-4.9586881 1.0155963z"/></g></g></svg>